<svg width="18" height="18" viewBox="0 0 69 69" fill="none" xmlns="http://www.w3.org/2000/svg">
<path d="M3 3L66.24 66.24" stroke="white" stroke-width="5.27" stroke-linecap="round" stroke-linejoin="round"/>
<path d="M29.35 29.9722C28.2567 31.2107 27.5933 32.838 27.5933 34.62C27.5933 38.5005 30.7392 41.6467 34.62 41.6467C36.402 41.6467 38.029 40.9833 39.2678 39.89" stroke="white" stroke-width="5.27" stroke-linecap="round" stroke-linejoin="round"/>
<path d="M18.3246 19.0247C12.4158 23.1654 7.49334 29.0647 3 34.62C9.63514 45.1284 21.5564 55.7 34.62 55.7C40.0653 55.7 45.3125 53.8632 50.0607 50.9598" stroke="white" stroke-width="5.27" stroke-linecap="round" stroke-linejoin="round"/>
<path d="M34.62 13.54C48.7028 13.54 58.1646 24.6358 66.24 34.62C65.121 36.3918 63.852 38.1657 62.4526 39.89" stroke="white" stroke-width="5.27" stroke-linecap="round" stroke-linejoin="round"/>
</svg>
